<?xml version="1.0" encoding="UTF-8" standalone="no"?>
<!DOCTYPE svg PUBLIC "-//W3C//DTD SVG 1.1//EN"
 "http://www.w3.org/Graphics/SVG/1.1/DTD/svg11.dtd">
<!-- Generated by graphviz version 2.43.0 (0)
 -->
<!-- Title: %3 Pages: 1 -->
<svg width="2305pt" height="514pt"
 viewBox="0.00 0.00 2305.00 514.00" xmlns="http://www.w3.org/2000/svg" xmlns:xlink="http://www.w3.org/1999/xlink">
<g id="graph0" class="graph" transform="scale(1 1) rotate(0) translate(4 510)">
<title>%3</title>
<polygon fill="#000418" stroke="transparent" points="-4,4 -4,-510 2301,-510 2301,4 -4,4"/>
<!-- init -->
<g id="node1" class="node">
<title>init</title>
<polygon fill="#e5c416" stroke="#ffffff" points="54,-379 0,-379 0,-343 54,-343 54,-379"/>
<text text-anchor="middle" x="27" y="-357.9" font-family="Ubuntu" font-size="12.00">init</text>
</g>
<!-- Parse hash -->
<g id="node14" class="node">
<title>Parse hash</title>
<polygon fill="#ffffff" stroke="#ffffff" points="186.5,-506 112.5,-506 112.5,-470 186.5,-470 186.5,-506"/>
<text text-anchor="middle" x="149.5" y="-484.9" font-family="Ubuntu" font-size="12.00">Parse hash</text>
</g>
<!-- init&#45;&gt;Parse hash -->
<g id="edge1" class="edge">
<title>init&#45;&gt;Parse hash</title>
<path fill="none" stroke="#ffffff" stroke-width="2" d="M45.26,-379.2C65.93,-400.98 100.69,-437.61 124.1,-462.28"/>
<polygon fill="#ffffff" stroke="#ffffff" stroke-width="2" points="121.85,-464.99 131.27,-469.84 126.92,-460.17 121.85,-464.99"/>
</g>
<!-- runWithProject -->
<g id="node15" class="node">
<title>runWithProject</title>
<polygon fill="#ffffff" stroke="#ffffff" points="538,-315 440,-315 440,-279 538,-279 538,-315"/>
<text text-anchor="middle" x="489" y="-293.9" font-family="Ubuntu" font-size="12.00">runWithProject</text>
</g>
<!-- init&#45;&gt;runWithProject -->
<g id="edge2" class="edge">
<title>init&#45;&gt;runWithProject</title>
<path fill="none" stroke="#ffffff" stroke-width="2" d="M54.05,-357.38C126.08,-347.35 329.24,-319.09 429.94,-305.08"/>
<polygon fill="#ffffff" stroke="#ffffff" stroke-width="2" points="430.52,-308.53 439.94,-303.69 429.55,-301.6 430.52,-308.53"/>
</g>
<!-- setUpProjectSelect -->
<g id="node16" class="node">
<title>setUpProjectSelect</title>
<polygon fill="#ffffff" stroke="#ffffff" points="209,-198 90,-198 90,-162 209,-162 209,-198"/>
<text text-anchor="middle" x="149.5" y="-176.9" font-family="Ubuntu" font-size="12.00">setUpProjectSelect</text>
</g>
<!-- init&#45;&gt;setUpProjectSelect -->
<g id="edge3" class="edge">
<title>init&#45;&gt;setUpProjectSelect</title>
<path fill="none" stroke="#ffffff" stroke-width="2" d="M39.99,-342.98C61.32,-310.95 105.93,-243.94 130.8,-206.59"/>
<polygon fill="#ffffff" stroke="#ffffff" stroke-width="2" points="133.75,-208.48 136.38,-198.21 127.92,-204.6 133.75,-208.48"/>
</g>
<!-- initState -->
<g id="node2" class="node">
<title>initState</title>
<polygon fill="#cc5614" stroke="#ffffff" points="671,-423 609,-423 609,-387 671,-387 671,-423"/>
<text text-anchor="middle" x="640" y="-401.9" font-family="Ubuntu" font-size="12.00">initState</text>
</g>
<!-- updateStateWithOcc -->
<g id="node3" class="node">
<title>updateStateWithOcc</title>
<polygon fill="#cc5614" stroke="#ffffff" points="1066,-369 938,-369 938,-333 1066,-333 1066,-369"/>
<text text-anchor="middle" x="1002" y="-347.9" font-family="Ubuntu" font-size="12.00">updateStateWithOcc</text>
</g>
<!-- useOccs -->
<g id="node25" class="node">
<title>useOccs</title>
<polygon fill="#ffffff" stroke="#ffffff" points="1174,-369 1114,-369 1114,-333 1174,-333 1174,-369"/>
<text text-anchor="middle" x="1144" y="-347.9" font-family="Ubuntu" font-size="12.00">useOccs</text>
</g>
<!-- updateStateWithOcc&#45;&gt;useOccs -->
<g id="edge17" class="edge">
<title>updateStateWithOcc&#45;&gt;useOccs</title>
<path fill="none" stroke="#ffffff" stroke-width="2" d="M1066.04,-351C1078.82,-351 1091.91,-351 1103.59,-351"/>
<polygon fill="#ffffff" stroke="#ffffff" stroke-width="2" points="1103.87,-354.5 1113.87,-351 1103.87,-347.5 1103.87,-354.5"/>
</g>
<!-- renderDocCounts -->
<g id="node4" class="node">
<title>renderDocCounts</title>
<polygon fill="#14cc5d" stroke="#ffffff" points="1057,-261 947,-261 947,-225 1057,-225 1057,-261"/>
<text text-anchor="middle" x="1002" y="-239.9" font-family="Ubuntu" font-size="12.00">renderDocCounts</text>
</g>
<!-- renderYearMap -->
<g id="node5" class="node">
<title>renderYearMap</title>
<polygon fill="#14cc5d" stroke="#ffffff" points="1314,-369 1214,-369 1214,-333 1314,-333 1314,-369"/>
<text text-anchor="middle" x="1264" y="-347.9" font-family="Ubuntu" font-size="12.00">renderYearMap</text>
</g>
<!-- Set up year bar &#39;click&#39; events -->
<g id="node7" class="node">
<title>Set up year bar &#39;click&#39; events</title>
<polygon fill="#14cc5d" stroke="#ffffff" points="1518,-369 1350,-369 1350,-333 1518,-333 1518,-369"/>
<text text-anchor="middle" x="1434" y="-347.9" font-family="Ubuntu" font-size="12.00">Set up year bar &#39;click&#39; events</text>
</g>
<!-- renderYearMap&#45;&gt;Set up year bar &#39;click&#39; events -->
<g id="edge19" class="edge">
<title>renderYearMap&#45;&gt;Set up year bar &#39;click&#39; events</title>
<path fill="none" stroke="#ffffff" stroke-width="2" d="M1314.04,-351C1322.21,-351 1330.91,-351 1339.74,-351"/>
<polygon fill="#ffffff" stroke="#ffffff" stroke-width="2" points="1339.76,-354.5 1349.76,-351 1339.76,-347.5 1339.76,-354.5"/>
</g>
<!-- Set up option &#39;click&#39; events -->
<g id="node6" class="node">
<title>Set up option &#39;click&#39; events</title>
<polygon fill="#14cc5d" stroke="#ffffff" points="404,-252 245,-252 245,-216 404,-216 404,-252"/>
<text text-anchor="middle" x="324.5" y="-230.9" font-family="Ubuntu" font-size="12.00">Set up option &#39;click&#39; events</text>
</g>
<!-- Set up option &#39;click&#39; events&#45;&gt;runWithProject -->
<g id="edge7" class="edge">
<title>Set up option &#39;click&#39; events&#45;&gt;runWithProject</title>
<path fill="none" stroke="#ffffff" stroke-width="2" stroke-dasharray="5,2" d="M372.07,-252.05C390.76,-259.3 412.48,-267.72 432.03,-275.3"/>
<polygon fill="#ffffff" stroke="#ffffff" stroke-width="2" points="430.84,-278.59 441.43,-278.94 433.37,-272.07 430.84,-278.59"/>
</g>
<!-- onYearClick -->
<g id="node8" class="node">
<title>onYearClick</title>
<polygon fill="#14cc5d" stroke="#ffffff" points="1633,-369 1554,-369 1554,-333 1633,-333 1633,-369"/>
<text text-anchor="middle" x="1593.5" y="-347.9" font-family="Ubuntu" font-size="12.00">onYearClick</text>
</g>
<!-- Set up year bar &#39;click&#39; events&#45;&gt;onYearClick -->
<g id="edge20" class="edge">
<title>Set up year bar &#39;click&#39; events&#45;&gt;onYearClick</title>
<path fill="none" stroke="#ffffff" stroke-width="2" stroke-dasharray="5,2" d="M1518.36,-351C1527.08,-351 1535.72,-351 1543.85,-351"/>
<polygon fill="#ffffff" stroke="#ffffff" stroke-width="2" points="1543.86,-354.5 1553.86,-351 1543.86,-347.5 1543.86,-354.5"/>
</g>
<!-- renderMonthMap -->
<g id="node9" class="node">
<title>renderMonthMap</title>
<polygon fill="#14cc5d" stroke="#ffffff" points="1780,-369 1669,-369 1669,-333 1780,-333 1780,-369"/>
<text text-anchor="middle" x="1724.5" y="-347.9" font-family="Ubuntu" font-size="12.00">renderMonthMap</text>
</g>
<!-- onYearClick&#45;&gt;renderMonthMap -->
<g id="edge21" class="edge">
<title>onYearClick&#45;&gt;renderMonthMap</title>
<path fill="none" stroke="#ffffff" stroke-width="2" d="M1633.2,-351C1641.21,-351 1649.84,-351 1658.49,-351"/>
<polygon fill="#ffffff" stroke="#ffffff" stroke-width="2" points="1658.61,-354.5 1668.61,-351 1658.61,-347.5 1658.61,-354.5"/>
<text text-anchor="middle" x="1648.61" y="-356.2" font-family="Helvetica,sans-Serif" font-size="16.00" fill="#ffffff">many</text>
<text text-anchor="middle" x="1638.2" y="-338.2" font-family="Helvetica,sans-Serif" font-size="16.00" fill="#ffffff">1</text>
</g>
<!-- renderDayTimeline -->
<g id="node10" class="node">
<title>renderDayTimeline</title>
<polygon fill="#14cc5d" stroke="#ffffff" points="1935,-369 1816,-369 1816,-333 1935,-333 1935,-369"/>
<text text-anchor="middle" x="1875.5" y="-347.9" font-family="Ubuntu" font-size="12.00">renderDayTimeline</text>
</g>
<!-- renderMonthMap&#45;&gt;renderDayTimeline -->
<g id="edge22" class="edge">
<title>renderMonthMap&#45;&gt;renderDayTimeline</title>
<path fill="none" stroke="#ffffff" stroke-width="2" d="M1780.14,-351C1788.49,-351 1797.21,-351 1805.82,-351"/>
<polygon fill="#ffffff" stroke="#ffffff" stroke-width="2" points="1805.86,-354.5 1815.86,-351 1805.86,-347.5 1805.86,-354.5"/>
<text text-anchor="middle" x="1812.36" y="-338.2" font-family="Helvetica,sans-Serif" font-size="16.00" fill="#ffffff">*</text>
<text text-anchor="middle" x="1785.14" y="-338.2" font-family="Helvetica,sans-Serif" font-size="16.00" fill="#ffffff">1</text>
</g>
<!-- Set up tick &#39;click&#39; events -->
<g id="node11" class="node">
<title>Set up tick &#39;click&#39; events</title>
<polygon fill="#14cc5d" stroke="#ffffff" points="2137.5,-423 1994.5,-423 1994.5,-387 2137.5,-387 2137.5,-423"/>
<text text-anchor="middle" x="2066" y="-401.9" font-family="Ubuntu" font-size="12.00">Set up tick &#39;click&#39; events</text>
</g>
<!-- renderDayTimeline&#45;&gt;Set up tick &#39;click&#39; events -->
<g id="edge23" class="edge">
<title>renderDayTimeline&#45;&gt;Set up tick &#39;click&#39; events</title>
<path fill="none" stroke="#ffffff" stroke-width="2" d="M1935.11,-367.79C1953.15,-372.96 1973.23,-378.71 1992.1,-384.12"/>
<polygon fill="#ffffff" stroke="#ffffff" stroke-width="2" points="1991.27,-387.52 2001.85,-386.91 1993.2,-380.79 1991.27,-387.52"/>
</g>
<!-- Set up doc list item &#39;click&#39; events -->
<g id="node12" class="node">
<title>Set up doc list item &#39;click&#39; events</title>
<polygon fill="#14cc5d" stroke="#ffffff" points="2161,-315 1971,-315 1971,-279 2161,-279 2161,-315"/>
<text text-anchor="middle" x="2066" y="-293.9" font-family="Ubuntu" font-size="12.00">Set up doc list item &#39;click&#39; events</text>
</g>
<!-- renderDayTimeline&#45;&gt;Set up doc list item &#39;click&#39; events -->
<g id="edge24" class="edge">
<title>renderDayTimeline&#45;&gt;Set up doc list item &#39;click&#39; events</title>
<path fill="none" stroke="#ffffff" stroke-width="2" d="M1935.11,-334.21C1953.15,-329.04 1973.23,-323.29 1992.1,-317.88"/>
<polygon fill="#ffffff" stroke="#ffffff" stroke-width="2" points="1993.2,-321.21 2001.85,-315.09 1991.27,-314.48 1993.2,-321.21"/>
</g>
<!-- onDocItemClick -->
<g id="node13" class="node">
<title>onDocItemClick</title>
<polygon fill="#14cc5d" stroke="#ffffff" points="2297,-315 2197,-315 2197,-279 2297,-279 2297,-315"/>
<text text-anchor="middle" x="2247" y="-293.9" font-family="Ubuntu" font-size="12.00">onDocItemClick</text>
</g>
<!-- Set up doc list item &#39;click&#39; events&#45;&gt;onDocItemClick -->
<g id="edge25" class="edge">
<title>Set up doc list item &#39;click&#39; events&#45;&gt;onDocItemClick</title>
<path fill="none" stroke="#ffffff" stroke-width="2" d="M2161.22,-297C2169.86,-297 2178.45,-297 2186.66,-297"/>
<polygon fill="#ffffff" stroke="#ffffff" stroke-width="2" points="2186.82,-300.5 2196.82,-297 2186.82,-293.5 2186.82,-300.5"/>
</g>
<!-- runWithProject&#45;&gt;initState -->
<g id="edge8" class="edge">
<title>runWithProject&#45;&gt;initState</title>
<path fill="none" stroke="#ffffff" stroke-width="2" d="M514.94,-315.08C539.87,-333.14 578.34,-361.03 605.83,-380.96"/>
<polygon fill="#ffffff" stroke="#ffffff" stroke-width="2" points="603.83,-383.83 613.98,-386.86 607.94,-378.16 603.83,-383.83"/>
</g>
<!-- Sync URL to state -->
<g id="node19" class="node">
<title>Sync URL to state</title>
<polygon fill="#ffffff" stroke="#ffffff" points="695,-315 585,-315 585,-279 695,-279 695,-315"/>
<text text-anchor="middle" x="640" y="-293.9" font-family="Ubuntu" font-size="12.00">Sync URL to state</text>
</g>
<!-- runWithProject&#45;&gt;Sync URL to state -->
<g id="edge9" class="edge">
<title>runWithProject&#45;&gt;Sync URL to state</title>
<path fill="none" stroke="#ffffff" stroke-width="2" d="M538.38,-297C549.99,-297 562.58,-297 574.79,-297"/>
<polygon fill="#ffffff" stroke="#ffffff" stroke-width="2" points="574.93,-300.5 584.93,-297 574.93,-293.5 574.93,-300.5"/>
</g>
<!-- Fetch docs for project -->
<g id="node20" class="node">
<title>Fetch docs for project</title>
<polygon fill="#ffffff" stroke="#ffffff" points="706,-207 574,-207 574,-171 706,-171 706,-207"/>
<text text-anchor="middle" x="640" y="-185.9" font-family="Ubuntu" font-size="12.00">Fetch docs for project</text>
</g>
<!-- runWithProject&#45;&gt;Fetch docs for project -->
<g id="edge10" class="edge">
<title>runWithProject&#45;&gt;Fetch docs for project</title>
<path fill="none" stroke="#ffffff" stroke-width="2" d="M514.94,-278.92C539.87,-260.86 578.34,-232.97 605.83,-213.04"/>
<polygon fill="#ffffff" stroke="#ffffff" stroke-width="2" points="607.94,-215.84 613.98,-207.14 603.83,-210.17 607.94,-215.84"/>
</g>
<!-- setUpProjectSelect&#45;&gt;Set up option &#39;click&#39; events -->
<g id="edge6" class="edge">
<title>setUpProjectSelect&#45;&gt;Set up option &#39;click&#39; events</title>
<path fill="none" stroke="#ffffff" stroke-width="2" d="M208.59,-198.13C223.79,-202.88 240.31,-208.03 255.95,-212.92"/>
<polygon fill="#ffffff" stroke="#ffffff" stroke-width="2" points="254.98,-216.28 265.57,-215.92 257.06,-209.6 254.98,-216.28"/>
</g>
<!-- Get user data -->
<g id="node17" class="node">
<title>Get user data</title>
<polygon fill="#ffffff" stroke="#ffffff" points="369,-144 280,-144 280,-108 369,-108 369,-144"/>
<text text-anchor="middle" x="324.5" y="-122.9" font-family="Ubuntu" font-size="12.00">Get user data</text>
</g>
<!-- setUpProjectSelect&#45;&gt;Get user data -->
<g id="edge4" class="edge">
<title>setUpProjectSelect&#45;&gt;Get user data</title>
<path fill="none" stroke="#ffffff" stroke-width="2" d="M208.59,-161.87C228.49,-155.66 250.65,-148.74 270.16,-142.65"/>
<polygon fill="#ffffff" stroke="#ffffff" stroke-width="2" points="271.29,-145.96 279.79,-139.64 269.2,-139.28 271.29,-145.96"/>
</g>
<!-- Populate select control -->
<g id="node18" class="node">
<title>Populate select control</title>
<polygon fill="#ffffff" stroke="#ffffff" points="394,-36 255,-36 255,0 394,0 394,-36"/>
<text text-anchor="middle" x="324.5" y="-14.9" font-family="Ubuntu" font-size="12.00">Populate select control</text>
</g>
<!-- setUpProjectSelect&#45;&gt;Populate select control -->
<g id="edge5" class="edge">
<title>setUpProjectSelect&#45;&gt;Populate select control</title>
<path fill="none" stroke="#ffffff" stroke-width="2" d="M164.01,-161.95C181.33,-139.45 212.99,-100.49 245,-72 257.26,-61.08 271.82,-50.52 285.05,-41.67"/>
<polygon fill="#ffffff" stroke="#ffffff" stroke-width="2" points="287.07,-44.52 293.51,-36.11 283.23,-38.67 287.07,-44.52"/>
</g>
<!-- collectOccFromDocResult -->
<g id="node21" class="node">
<title>collectOccFromDocResult</title>
<polygon fill="#ffffff" stroke="#ffffff" points="894,-207 742,-207 742,-171 894,-171 894,-207"/>
<text text-anchor="middle" x="818" y="-185.9" font-family="Ubuntu" font-size="12.00">collectOccFromDocResult</text>
</g>
<!-- Fetch docs for project&#45;&gt;collectOccFromDocResult -->
<g id="edge11" class="edge">
<title>Fetch docs for project&#45;&gt;collectOccFromDocResult</title>
<path fill="none" stroke="#ffffff" stroke-width="2" d="M706.04,-189C714.41,-189 723.08,-189 731.72,-189"/>
<polygon fill="#ffffff" stroke="#ffffff" stroke-width="2" points="731.83,-192.5 741.83,-189 731.83,-185.5 731.83,-192.5"/>
<text text-anchor="middle" x="721.83" y="-194.2" font-family="Helvetica,sans-Serif" font-size="16.00" fill="#ffffff">many</text>
<text text-anchor="middle" x="711.04" y="-176.2" font-family="Helvetica,sans-Serif" font-size="16.00" fill="#ffffff">1</text>
</g>
<!-- collectOccFromDocResult&#45;&gt;updateStateWithOcc -->
<g id="edge14" class="edge">
<title>collectOccFromDocResult&#45;&gt;updateStateWithOcc</title>
<path fill="none" stroke="#ffffff" stroke-width="2" d="M836.44,-207.28C857.78,-229.33 895.37,-267.17 930,-297 941.92,-307.26 955.55,-317.88 967.67,-326.96"/>
<polygon fill="#ffffff" stroke="#ffffff" stroke-width="2" points="965.66,-329.83 975.78,-332.97 969.83,-324.2 965.66,-329.83"/>
<text text-anchor="middle" x="955.78" y="-320.17" font-family="Helvetica,sans-Serif" font-size="16.00" fill="#ffffff">many</text>
<text text-anchor="middle" x="831.44" y="-212.48" font-family="Helvetica,sans-Serif" font-size="16.00" fill="#ffffff">1</text>
</g>
<!-- collectOccFromDocResult&#45;&gt;renderDocCounts -->
<g id="edge15" class="edge">
<title>collectOccFromDocResult&#45;&gt;renderDocCounts</title>
<path fill="none" stroke="#ffffff" stroke-width="2" d="M879.86,-207.06C898.25,-212.51 918.5,-218.52 937.09,-224.04"/>
<polygon fill="#ffffff" stroke="#ffffff" stroke-width="2" points="936.35,-227.47 946.93,-226.96 938.34,-220.76 936.35,-227.47"/>
</g>
<!-- Get page text -->
<g id="node22" class="node">
<title>Get page text</title>
<polygon fill="#ffffff" stroke="#ffffff" points="1047,-153 957,-153 957,-117 1047,-117 1047,-153"/>
<text text-anchor="middle" x="1002" y="-131.9" font-family="Ubuntu" font-size="12.00">Get page text</text>
</g>
<!-- collectOccFromDocResult&#45;&gt;Get page text -->
<g id="edge12" class="edge">
<title>collectOccFromDocResult&#45;&gt;Get page text</title>
<path fill="none" stroke="#ffffff" stroke-width="2" d="M879.86,-170.94C901.62,-164.49 925.98,-157.26 947.12,-150.99"/>
<polygon fill="#ffffff" stroke="#ffffff" stroke-width="2" points="948.31,-154.29 956.9,-148.09 946.32,-147.57 948.31,-154.29"/>
</g>
<!-- getOccurrencesForPage -->
<g id="node23" class="node">
<title>getOccurrencesForPage</title>
<polygon fill="#ffffff" stroke="#ffffff" points="1074,-45 930,-45 930,-9 1074,-9 1074,-45"/>
<text text-anchor="middle" x="1002" y="-23.9" font-family="Ubuntu" font-size="12.00">getOccurrencesForPage</text>
</g>
<!-- collectOccFromDocResult&#45;&gt;getOccurrencesForPage -->
<g id="edge13" class="edge">
<title>collectOccFromDocResult&#45;&gt;getOccurrencesForPage</title>
<path fill="none" stroke="#ffffff" stroke-width="2" d="M836.44,-170.72C857.78,-148.67 895.37,-110.83 930,-81 941.92,-70.74 955.55,-60.12 967.67,-51.04"/>
<polygon fill="#ffffff" stroke="#ffffff" stroke-width="2" points="969.83,-53.8 975.78,-45.03 965.66,-48.17 969.83,-53.8"/>
<text text-anchor="middle" x="955.78" y="-50.23" font-family="Helvetica,sans-Serif" font-size="16.00" fill="#ffffff">many</text>
<text text-anchor="middle" x="831.44" y="-157.92" font-family="Helvetica,sans-Serif" font-size="16.00" fill="#ffffff">1</text>
</g>
<!-- findDates -->
<g id="node24" class="node">
<title>findDates</title>
<polygon fill="#ffffff" stroke="#ffffff" points="1178,-45 1110,-45 1110,-9 1178,-9 1178,-45"/>
<text text-anchor="middle" x="1144" y="-23.9" font-family="Ubuntu" font-size="12.00">findDates</text>
</g>
<!-- getOccurrencesForPage&#45;&gt;findDates -->
<g id="edge16" class="edge">
<title>getOccurrencesForPage&#45;&gt;findDates</title>
<path fill="none" stroke="#ffffff" stroke-width="2" d="M1074.23,-27C1082.87,-27 1091.49,-27 1099.55,-27"/>
<polygon fill="#ffffff" stroke="#ffffff" stroke-width="2" points="1099.79,-30.5 1109.79,-27 1099.79,-23.5 1099.79,-30.5"/>
</g>
<!-- useOccs&#45;&gt;renderYearMap -->
<g id="edge18" class="edge">
<title>useOccs&#45;&gt;renderYearMap</title>
<path fill="none" stroke="#ffffff" stroke-width="2" d="M1174.17,-351C1183.18,-351 1193.45,-351 1203.72,-351"/>
<polygon fill="#ffffff" stroke="#ffffff" stroke-width="2" points="1203.96,-354.5 1213.96,-351 1203.96,-347.5 1203.96,-354.5"/>
</g>
</g>
</svg>
