<?xml version="1.0" encoding="UTF-8" standalone="no"?>
<!DOCTYPE svg PUBLIC "-//W3C//DTD SVG 1.1//EN"
 "http://www.w3.org/Graphics/SVG/1.1/DTD/svg11.dtd">
<!-- Generated by graphviz version 2.43.0 (0)
 -->
<!-- Title: %3 Pages: 1 -->
<svg width="1148pt" height="404pt"
 viewBox="0.00 0.00 1148.00 404.00" xmlns="http://www.w3.org/2000/svg" xmlns:xlink="http://www.w3.org/1999/xlink">
<g id="graph0" class="graph" transform="scale(1 1) rotate(0) translate(4 400)">
<title>%3</title>
<polygon fill="#000418" stroke="transparent" points="-4,4 -4,-400 1144,-400 1144,4 -4,4"/>
<!-- init -->
<g id="node1" class="node">
<title>init</title>
<polygon fill="#cc5614" stroke="#ffffff" points="210,-396 156,-396 156,-360 210,-360 210,-396"/>
<text text-anchor="middle" x="183" y="-374.9" font-family="Ubuntu" font-size="12.00">init</text>
</g>
<!-- Parse hash -->
<g id="node3" class="node">
<title>Parse hash</title>
<polygon fill="#ffffff" stroke="#ffffff" points="74,-324 0,-324 0,-288 74,-288 74,-324"/>
<text text-anchor="middle" x="37" y="-302.9" font-family="Ubuntu" font-size="12.00">Parse hash</text>
</g>
<!-- init&#45;&gt;Parse hash -->
<g id="edge1" class="edge">
<title>init&#45;&gt;Parse hash</title>
<path fill="none" stroke="#ffffff" stroke-width="2" d="M155.88,-364C135.04,-354.01 105.81,-339.99 81.55,-328.36"/>
<polygon fill="#ffffff" stroke="#ffffff" stroke-width="2" points="83.05,-325.2 72.52,-324.03 80.03,-331.51 83.05,-325.2"/>
</g>
<!-- runWithProject -->
<g id="node4" class="node">
<title>runWithProject</title>
<polygon fill="#ffffff" stroke="#ffffff" points="512,-180 414,-180 414,-144 512,-144 512,-180"/>
<text text-anchor="middle" x="463" y="-158.9" font-family="Ubuntu" font-size="12.00">runWithProject</text>
</g>
<!-- init&#45;&gt;runWithProject -->
<g id="edge2" class="edge">
<title>init&#45;&gt;runWithProject</title>
<path fill="none" stroke="#ffffff" stroke-width="2" d="M185.74,-359.98C191.98,-326.99 210.38,-254.26 256,-216 297.27,-181.39 358.31,-168.99 403.42,-164.74"/>
<polygon fill="#ffffff" stroke="#ffffff" stroke-width="2" points="403.98,-168.21 413.66,-163.89 403.4,-161.23 403.98,-168.21"/>
</g>
<!-- setUpProjectSelect -->
<g id="node5" class="node">
<title>setUpProjectSelect</title>
<polygon fill="#ffffff" stroke="#ffffff" points="496.5,-324 377.5,-324 377.5,-288 496.5,-288 496.5,-324"/>
<text text-anchor="middle" x="437" y="-302.9" font-family="Ubuntu" font-size="12.00">setUpProjectSelect</text>
</g>
<!-- init&#45;&gt;setUpProjectSelect -->
<g id="edge3" class="edge">
<title>init&#45;&gt;setUpProjectSelect</title>
<path fill="none" stroke="#ffffff" stroke-width="2" d="M210.18,-369.51C247.45,-359.24 315.71,-340.43 367.64,-326.11"/>
<polygon fill="#ffffff" stroke="#ffffff" stroke-width="2" points="368.76,-329.44 377.47,-323.41 366.9,-322.69 368.76,-329.44"/>
</g>
<!-- renderDocCounts -->
<g id="node2" class="node">
<title>renderDocCounts</title>
<polygon fill="#14cc5d" stroke="#ffffff" points="562,-36 452,-36 452,0 562,0 562,-36"/>
<text text-anchor="middle" x="507" y="-14.9" font-family="Ubuntu" font-size="12.00">renderDocCounts</text>
</g>
<!-- initState -->
<g id="node9" class="node">
<title>initState</title>
<polygon fill="#ffffff" stroke="#ffffff" points="240,-108 178,-108 178,-72 240,-72 240,-108"/>
<text text-anchor="middle" x="209" y="-86.9" font-family="Ubuntu" font-size="12.00">initState</text>
</g>
<!-- runWithProject&#45;&gt;initState -->
<g id="edge8" class="edge">
<title>runWithProject&#45;&gt;initState</title>
<path fill="none" stroke="#ffffff" stroke-width="2" d="M413.73,-147.42C365.98,-134.26 294.41,-114.54 249.78,-102.24"/>
<polygon fill="#ffffff" stroke="#ffffff" stroke-width="2" points="250.7,-98.86 240.13,-99.58 248.84,-105.61 250.7,-98.86"/>
</g>
<!-- Sync URL to state -->
<g id="node10" class="node">
<title>Sync URL to state</title>
<polygon fill="#ffffff" stroke="#ffffff" points="422,-108 312,-108 312,-72 422,-72 422,-108"/>
<text text-anchor="middle" x="367" y="-86.9" font-family="Ubuntu" font-size="12.00">Sync URL to state</text>
</g>
<!-- runWithProject&#45;&gt;Sync URL to state -->
<g id="edge9" class="edge">
<title>runWithProject&#45;&gt;Sync URL to state</title>
<path fill="none" stroke="#ffffff" stroke-width="2" d="M439.27,-143.7C427.06,-134.8 412.01,-123.82 398.82,-114.2"/>
<polygon fill="#ffffff" stroke="#ffffff" stroke-width="2" points="400.6,-111.17 390.46,-108.1 396.48,-116.82 400.6,-111.17"/>
</g>
<!-- Fetch docs for project -->
<g id="node11" class="node">
<title>Fetch docs for project</title>
<polygon fill="#ffffff" stroke="#ffffff" points="626,-108 494,-108 494,-72 626,-72 626,-108"/>
<text text-anchor="middle" x="560" y="-86.9" font-family="Ubuntu" font-size="12.00">Fetch docs for project</text>
</g>
<!-- runWithProject&#45;&gt;Fetch docs for project -->
<g id="edge10" class="edge">
<title>runWithProject&#45;&gt;Fetch docs for project</title>
<path fill="none" stroke="#ffffff" stroke-width="2" d="M486.98,-143.7C499.31,-134.8 514.52,-123.82 527.85,-114.2"/>
<polygon fill="#ffffff" stroke="#ffffff" stroke-width="2" points="530.24,-116.79 536.3,-108.1 526.14,-111.12 530.24,-116.79"/>
</g>
<!-- collectOccFromDocResult -->
<g id="node12" class="node">
<title>collectOccFromDocResult</title>
<polygon fill="#ffffff" stroke="#ffffff" points="850,-108 698,-108 698,-72 850,-72 850,-108"/>
<text text-anchor="middle" x="774" y="-86.9" font-family="Ubuntu" font-size="12.00">collectOccFromDocResult</text>
</g>
<!-- runWithProject&#45;&gt;collectOccFromDocResult -->
<g id="edge11" class="edge">
<title>runWithProject&#45;&gt;collectOccFromDocResult</title>
<path fill="none" stroke="#ffffff" stroke-width="2" d="M512.28,-149.91C559.46,-139.29 631.63,-123.05 688.24,-110.3"/>
<polygon fill="#ffffff" stroke="#ffffff" stroke-width="2" points="689.28,-113.66 698.26,-108.05 687.74,-106.83 689.28,-113.66"/>
<text text-anchor="middle" x="694.76" y="-113.25" font-family="Helvetica,sans-Serif" font-size="16.00" fill="#ffffff">*</text>
<text text-anchor="middle" x="517.28" y="-155.11" font-family="Helvetica,sans-Serif" font-size="16.00" fill="#ffffff">1</text>
</g>
<!-- Get user data -->
<g id="node6" class="node">
<title>Get user data</title>
<polygon fill="#ffffff" stroke="#ffffff" points="381.5,-252 292.5,-252 292.5,-216 381.5,-216 381.5,-252"/>
<text text-anchor="middle" x="337" y="-230.9" font-family="Ubuntu" font-size="12.00">Get user data</text>
</g>
<!-- setUpProjectSelect&#45;&gt;Get user data -->
<g id="edge4" class="edge">
<title>setUpProjectSelect&#45;&gt;Get user data</title>
<path fill="none" stroke="#ffffff" stroke-width="2" d="M412.54,-287.88C399.7,-278.89 383.8,-267.76 369.91,-258.03"/>
<polygon fill="#ffffff" stroke="#ffffff" stroke-width="2" points="371.76,-255.06 361.56,-252.19 367.74,-260.79 371.76,-255.06"/>
</g>
<!-- Populate select control -->
<g id="node7" class="node">
<title>Populate select control</title>
<polygon fill="#ffffff" stroke="#ffffff" points="592.5,-252 453.5,-252 453.5,-216 592.5,-216 592.5,-252"/>
<text text-anchor="middle" x="523" y="-230.9" font-family="Ubuntu" font-size="12.00">Populate select control</text>
</g>
<!-- setUpProjectSelect&#45;&gt;Populate select control -->
<g id="edge5" class="edge">
<title>setUpProjectSelect&#45;&gt;Populate select control</title>
<path fill="none" stroke="#ffffff" stroke-width="2" d="M458.26,-287.7C469.09,-278.88 482.42,-268.03 494.16,-258.47"/>
<polygon fill="#ffffff" stroke="#ffffff" stroke-width="2" points="496.44,-261.13 501.99,-252.1 492.02,-255.7 496.44,-261.13"/>
</g>
<!-- Set up option &#39;click&#39; events -->
<g id="node8" class="node">
<title>Set up option &#39;click&#39; events</title>
<polygon fill="#ffffff" stroke="#ffffff" points="823.5,-252 664.5,-252 664.5,-216 823.5,-216 823.5,-252"/>
<text text-anchor="middle" x="744" y="-230.9" font-family="Ubuntu" font-size="12.00">Set up option &#39;click&#39; events</text>
</g>
<!-- setUpProjectSelect&#45;&gt;Set up option &#39;click&#39; events -->
<g id="edge6" class="edge">
<title>setUpProjectSelect&#45;&gt;Set up option &#39;click&#39; events</title>
<path fill="none" stroke="#ffffff" stroke-width="2" d="M496.56,-291.42C542.92,-280.85 607.85,-266.04 659.57,-254.25"/>
<polygon fill="#ffffff" stroke="#ffffff" stroke-width="2" points="660.42,-257.65 669.39,-252.01 658.87,-250.82 660.42,-257.65"/>
</g>
<!-- Set up option &#39;click&#39; events&#45;&gt;runWithProject -->
<g id="edge7" class="edge">
<title>Set up option &#39;click&#39; events&#45;&gt;runWithProject</title>
<path fill="none" stroke="#ffffff" stroke-width="2" stroke-dasharray="5,2" d="M675.62,-215.97C628.65,-204.26 566.92,-188.89 522.09,-177.72"/>
<polygon fill="#ffffff" stroke="#ffffff" stroke-width="2" points="522.77,-174.28 512.22,-175.26 521.07,-181.07 522.77,-174.28"/>
</g>
<!-- collectOccFromDocResult&#45;&gt;renderDocCounts -->
<g id="edge15" class="edge">
<title>collectOccFromDocResult&#45;&gt;renderDocCounts</title>
<path fill="none" stroke="#ffffff" stroke-width="2" d="M709.03,-71.97C667.44,-61.06 613.68,-46.97 572.08,-36.06"/>
<polygon fill="#ffffff" stroke="#ffffff" stroke-width="2" points="572.88,-32.65 562.32,-33.5 571.1,-39.42 572.88,-32.65"/>
</g>
<!-- Get page text -->
<g id="node13" class="node">
<title>Get page text</title>
<polygon fill="#ffffff" stroke="#ffffff" points="724,-36 634,-36 634,0 724,0 724,-36"/>
<text text-anchor="middle" x="679" y="-14.9" font-family="Ubuntu" font-size="12.00">Get page text</text>
</g>
<!-- collectOccFromDocResult&#45;&gt;Get page text -->
<g id="edge12" class="edge">
<title>collectOccFromDocResult&#45;&gt;Get page text</title>
<path fill="none" stroke="#ffffff" stroke-width="2" d="M750.52,-71.7C738.44,-62.8 723.55,-51.82 710.48,-42.2"/>
<polygon fill="#ffffff" stroke="#ffffff" stroke-width="2" points="712.34,-39.22 702.21,-36.1 708.19,-44.85 712.34,-39.22"/>
</g>
<!-- getOccurrencesForPage -->
<g id="node14" class="node">
<title>getOccurrencesForPage</title>
<polygon fill="#ffffff" stroke="#ffffff" points="940,-36 796,-36 796,0 940,0 940,-36"/>
<text text-anchor="middle" x="868" y="-14.9" font-family="Ubuntu" font-size="12.00">getOccurrencesForPage</text>
</g>
<!-- collectOccFromDocResult&#45;&gt;getOccurrencesForPage -->
<g id="edge13" class="edge">
<title>collectOccFromDocResult&#45;&gt;getOccurrencesForPage</title>
<path fill="none" stroke="#ffffff" stroke-width="2" d="M797.24,-71.7C809.19,-62.8 823.92,-51.82 836.85,-42.2"/>
<polygon fill="#ffffff" stroke="#ffffff" stroke-width="2" points="839.1,-44.88 845.03,-36.1 834.92,-39.27 839.1,-44.88"/>
<text text-anchor="middle" x="841.53" y="-41.3" font-family="Helvetica,sans-Serif" font-size="16.00" fill="#ffffff">*</text>
<text text-anchor="middle" x="792.24" y="-58.9" font-family="Helvetica,sans-Serif" font-size="16.00" fill="#ffffff">1</text>
</g>
<!-- updateStateWithOcc -->
<g id="node15" class="node">
<title>updateStateWithOcc</title>
<polygon fill="#ffffff" stroke="#ffffff" points="1140,-36 1012,-36 1012,0 1140,0 1140,-36"/>
<text text-anchor="middle" x="1076" y="-14.9" font-family="Ubuntu" font-size="12.00">updateStateWithOcc</text>
</g>
<!-- collectOccFromDocResult&#45;&gt;updateStateWithOcc -->
<g id="edge14" class="edge">
<title>collectOccFromDocResult&#45;&gt;updateStateWithOcc</title>
<path fill="none" stroke="#ffffff" stroke-width="2" d="M847.49,-71.97C894.44,-61.08 955.09,-47.02 1002.11,-36.13"/>
<polygon fill="#ffffff" stroke="#ffffff" stroke-width="2" points="1002.98,-39.52 1011.93,-33.85 1001.4,-32.7 1002.98,-39.52"/>
<text text-anchor="middle" x="1008.43" y="-39.05" font-family="Helvetica,sans-Serif" font-size="16.00" fill="#ffffff">*</text>
<text text-anchor="middle" x="852.49" y="-59.17" font-family="Helvetica,sans-Serif" font-size="16.00" fill="#ffffff">1</text>
</g>
</g>
</svg>
